<?xml version="1.0" encoding="UTF-8" standalone="no"?>
<!-- Created with Inkscape (http://www.inkscape.org/) -->

<svg
   width="173.82939mm"
   height="61.69286mm"
   viewBox="0 0 173.82939 61.69286"
   version="1.1"
   id="svg1"
   xml:space="preserve"
   xmlns:inkscape="http://www.inkscape.org/namespaces/inkscape"
   xmlns:sodipodi="http://sodipodi.sourceforge.net/DTD/sodipodi-0.dtd"
   xmlns="http://www.w3.org/2000/svg"
   xmlns:svg="http://www.w3.org/2000/svg"><sodipodi:namedview
     id="namedview1"
     pagecolor="#ffffff"
     bordercolor="#000000"
     borderopacity="0.25"
     inkscape:showpageshadow="2"
     inkscape:pageopacity="0.0"
     inkscape:pagecheckerboard="0"
     inkscape:deskcolor="#d1d1d1"
     inkscape:document-units="mm" /><defs
     id="defs1" /><g
     inkscape:label="Layer 1"
     inkscape:groupmode="layer"
     id="layer1"
     transform="translate(-18.98955,-52.573889)"><g
       style="fill:#a700a7;fill-opacity:1"
       id="g1"
       transform="matrix(2.1791792,0,0,2.1270149,14.631193,48.329284)"
       inkscape:export-filename="logo.svg"
       inkscape:export-xdpi="96"
       inkscape:export-ydpi="96"><path
         d="M 22.9,11.8 C 22.4,10 21,8.5 19.1,8.1 17.9,7.8 16.6,8 15.6,8.6 15,9 14.4,8.9 13.9,8.8 13.8,8.8 13.6,8.7 13.4,8.7 L 5.4,7.4 C 4.6,7.3 3.7,7.5 3,8.1 2.4,8.6 2,9.4 2,10.2 v 5.9 c 0,0.8 0.4,1.6 1,2.1 0.6,0.5 1.3,0.8 2,0.8 0.2,0 0.3,0 0.5,0 l 8,-1.3 c 0.2,0 0.3,-0.1 0.5,-0.1 0.8,-0.3 1.5,-0.2 2.2,0 0.6,0.3 1.2,0.4 1.9,0.4 1.5,0 3,-0.7 3.9,-1.9 0.9,-1.2 1.2,-2.7 0.9,-4.3 z M 18,15 c -1.1,0 -2,-0.9 -2,-2 0,-1.1 0.9,-2 2,-2 1.1,0 2,0.9 2,2 0,1.1 -0.9,2 -2,2 z"
         id="path1"
         style="fill:#a700a7;fill-opacity:1" /><path
         d="M 18.3,2 C 14.9,1.9 11.8,3.5 9.9,6.1 l 3.8,0.6 c 0.3,0 0.5,0.1 0.8,0.2 0.1,0 0.1,0 0.1,0 0,0 0,0 0,0 1.4,-0.8 3.2,-1.1 4.9,-0.7 2.6,0.6 4.7,2.6 5.3,5.2 v 0 c 0.5,2.1 0,4.3 -1.3,6 C 22.1,19 20.1,20 18,20 c -0.9,0 -1.8,-0.2 -2.7,-0.5 -0.2,-0.1 -0.6,0 -0.8,0 -0.2,0.1 -0.5,0.1 -0.7,0.2 l -6.4,1 -0.1,0.9 c -0.1,1.3 0.5,2.6 1.5,3.4 1,0.8 2.4,1.1 3.6,0.7 0,0 0,0 0,0 v 0 c 0,0 0,0 0,0 0.1,0 0.1,0 0.2,0 0.1,0 0.1,0.1 0.1,0.2 L 12,29.8 c 0,0.3 0,0.6 0.2,0.8 0.2,0.2 0.5,0.4 0.8,0.4 h 12 c 0.3,0 0.6,-0.1 0.8,-0.4 C 26,30.4 26,30 26,29.7 l -1,-3.8 c -0.8,-2.8 -0.2,-5.9 1.5,-8.6 1,-1.6 1.6,-3.5 1.5,-5.4 0,0 0,0 0,0 C 27.9,6.6 23.6,2.2 18.3,2 Z"
         id="path2"
         style="fill:#a700a7;fill-opacity:1" /></g><text
       xml:space="preserve"
       style="font-size:24.3058px;fill:#a700a7;fill-opacity:1;stroke-width:0.379778"
       x="115.53724"
       y="74.847702"
       id="text1"
       transform="scale(0.73728314,1.356331)"><tspan
         sodipodi:role="line"
         id="tspan1"
         style="font-style:normal;font-variant:normal;font-weight:bold;font-stretch:normal;font-size:24.3058px;font-family:sans-serif;-inkscape-font-specification:'sans-serif Bold';stroke-width:0.379778"
         x="115.53724"
         y="74.847702">VirtuTeach</tspan></text></g></svg>
